<?xml version="1.0" ?><!DOCTYPE svg  PUBLIC '-//W3C//DTD SVG 1.1//EN'  'http://www.w3.org/Graphics/SVG/1.1/DTD/svg11.dtd'><svg xmlns="http://www.w3.org/2000/svg" xmlns:xlink="http://www.w3.org/1999/xlink" xmlns:serif="http://www.serif.com/" width="100%" height="100%" viewBox="0 0 64 64" version="1.1" xml:space="preserve" style="fill-rule:evenodd;clip-rule:evenodd;stroke-linejoin:round;stroke-miterlimit:2;"><path d="M27,3L9,3C7.896,3 7,3.896 7,5C7,6.104 7.896,7 9,7L55,7C56.104,7 57,6.104 57,5C57,3.896 56.104,3 55,3L38,3C38,1.896 37.104,1 36,1L29,1C27.896,1 27,1.896 27,3Z"/><path d="M56.981,11.277C57.061,10.704 56.889,10.124 56.509,9.687C56.129,9.251 55.579,9 55,9L9,9C8.421,9 7.871,9.251 7.491,9.687C7.111,10.124 6.939,10.704 7.019,11.277L14.019,61.277C14.158,62.265 15.003,63 16,63L48,63C48.997,63 49.842,62.265 49.981,61.277L56.981,11.277ZM16.019,18.275L21.019,54.275C21.171,55.368 22.182,56.133 23.275,55.981C24.368,55.829 25.133,54.818 24.981,53.725L19.981,17.725C19.829,16.632 18.818,15.867 17.725,16.019C16.632,16.171 15.867,17.182 16.019,18.275ZM44.019,17.725L39.019,53.725C38.867,54.818 39.632,55.829 40.725,55.981C41.818,56.133 42.829,55.368 42.981,54.275L47.981,18.275C48.133,17.182 47.368,16.171 46.275,16.019C45.182,15.867 44.171,16.632 44.019,17.725ZM30,18L30,54C30,55.104 30.896,56 32,56C33.104,56 34,55.104 34,54L34,18C34,16.896 33.104,16 32,16C30.896,16 30,16.896 30,18Z"/></svg>