<?xml version="1.0" encoding="iso-8859-1"?>
<!-- Generator: Adobe Illustrator 23.0.2, SVG Export Plug-In . SVG Version: 6.00 Build 0)  -->
<svg version="1.1" id="_x32_9_delivery_truck" xmlns="http://www.w3.org/2000/svg" xmlns:xlink="http://www.w3.org/1999/xlink"
	 x="0px" y="0px" viewBox="0 0 3872.983 3872.983" style="enable-background:new 0 0 3872.983 3872.983;" xml:space="preserve">
<path d="M3423.444,1843.606c-0.063-0.676-0.164-1.339-0.248-2.008c-0.139-1.082-0.295-2.16-0.494-3.231
	c-0.148-0.803-0.318-1.596-0.497-2.388c-0.209-0.906-0.444-1.804-0.695-2.698c-0.234-0.834-0.464-1.667-0.733-2.486
	c-0.281-0.854-0.606-1.69-0.927-2.53c-0.302-0.794-0.581-1.598-0.917-2.375c-0.646-1.495-1.353-2.967-2.125-4.407
	c-0.342-0.638-0.732-1.242-1.098-1.865c-0.522-0.896-1.044-1.791-1.616-2.661c-0.419-0.632-0.869-1.239-1.31-1.854
	c-0.392-0.55-0.752-1.116-1.165-1.652l-291.613-379.097c-11.038-14.353-28.119-22.765-46.225-22.765h-699.871v-408.258
	c0-32.208-26.114-58.323-58.323-58.323h-1808c-32.208,0-58.323,26.114-58.323,58.323v1633.032c0,32.208,26.114,58.323,58.323,58.323
	h180.836c27.095,132.945,144.917,233.29,285.745,233.29s258.65-100.346,285.745-233.29h1055.674h239.158
	c27.094,132.945,144.917,233.29,285.745,233.29c140.829,0,258.651-100.346,285.745-233.29h239.158
	c32.208,0,58.323-26.114,58.323-58.323v-787.355C3423.717,1847.197,3423.612,1845.397,3423.444,1843.606z M3045.065,1528.234
	l201.885,262.452h-873.039v-262.452H3045.065z M565.911,1294.943h1691.355v816.516H565.911V1294.943z M2257.266,1061.653v116.645
	H565.911v-116.645H2257.266z M565.911,2228.104h1691.355v349.936h-997.352c-27.094-132.945-144.917-233.29-285.745-233.29
	s-258.651,100.346-285.745,233.29H565.911V2228.104z M974.169,2811.33c-96.477,0-174.968-78.491-174.968-174.968
	s78.491-174.968,174.968-174.968s174.968,78.491,174.968,174.968S1070.646,2811.33,974.169,2811.33z M2840.491,2811.33
	c-96.477,0-174.968-78.491-174.968-174.968s78.49-174.968,174.968-174.968c96.477,0,174.968,78.491,174.968,174.968
	S2936.969,2811.33,2840.491,2811.33z M3126.237,2578.04c-27.094-132.945-144.917-233.29-285.745-233.29
	c-140.828,0-258.65,100.346-285.745,233.29h-180.836v-670.71h933.161v174.968h-116.645c-32.208,0-58.323,26.114-58.323,58.323
	c0,32.208,26.114,58.323,58.323,58.323h116.645v379.097H3126.237z"/>
</svg>
